<svg id="Capa_1" enable-background="new 0 0 512 512" height="512" viewBox="0 0 512 512" width="512" xmlns="http://www.w3.org/2000/svg"><g><path d="m0 497c0 8.284 6.716 15 15 15h482c8.284 0 15-6.716 15-15s-6.716-15-15-15h-96.729l19.146-38.292c5.14-10.281-2.757-22.358-14.297-21.682l-47.691 2.806 18.425-42.989c5.324-12.422-7.282-25.017-19.696-19.696l-15.293 6.554 18.459-130.774c30.823 7.198 60.202-5.126 77.349-27.928 40.952.276 75.327-33.096 75.327-74.999 0-41.355-33.645-75-75-75-.109 0-.219 0-.327.001-20.53-27.3-56.755-37.621-89.482-24.054-25.039-23.265-57.011-35.947-91.191-35.947s-66.152 12.682-91.191 35.947c-32.711-13.559-68.939-3.263-89.482 24.054-.108-.001-.217-.001-.327-.001-41.355 0-75 33.645-75 75s33.645 75 75 75c.11 0 .218 0 .327-.001 17.178 22.843 46.573 35.115 77.349 27.928l18.459 130.774-15.292-6.554c-12.42-5.324-25.016 7.281-19.696 19.696l18.424 42.989-47.691-2.806c-11.481-.673-19.463 11.35-14.297 21.682l19.146 38.292h-96.729c-8.284 0-15 6.716-15 15zm95.967-310.145c-3.006-5.35-8.966-8.328-15.049-7.521-28.758 3.817-50.918-18.613-50.918-44.334 0-24.813 20.187-45 45-45 3.533 0 15.022 3.724 20.967-6.855 13.184-23.461 42.493-29.535 63.809-16.168 6.135 3.848 14.146 2.762 19.036-2.582 20.295-22.18 47.708-34.395 77.188-34.395s56.893 12.215 77.188 34.395c4.891 5.344 12.899 6.43 19.036 2.582 21.267-13.337 50.594-7.351 63.809 16.167 3.006 5.35 8.968 8.328 15.051 7.522 28.744-3.822 50.916 18.604 50.916 44.334 0 25.394-21.787 48.2-50.917 44.334-6.079-.806-12.043 2.172-15.05 7.522-13.183 23.462-42.493 29.535-63.809 16.168-6.137-3.848-14.146-2.762-19.036 2.582-41.842 45.727-112.209 46.082-154.377 0-4.905-5.359-12.916-6.419-19.036-2.582-21.266 13.336-50.592 7.35-63.808-16.169zm88.616 62.48c17.045 10.83 36.199 17.592 56.417 19.833v15.832c0 8.284 6.716 15 15 15s15-6.716 15-15v-15.832c20.218-2.241 39.372-9.004 56.417-19.833l-18.8 133.187-14.979 6.42-24.209-48.626c-5.506-11.059-21.341-11.077-26.855 0l-24.209 48.626-14.979-6.42zm-53.563 204.163 46.02 2.708c11.11.651 19.06-10.636 14.668-20.883l-13.213-30.829 41.074 17.603c7.308 3.132 15.792.017 19.336-7.102l17.095-34.339 17.096 34.338c3.544 7.118 12.026 10.235 19.336 7.102l41.074-17.603-13.213 30.829c-4.381 10.222 3.525 21.531 14.668 20.883l46.02-2.708-14.252 28.503h-221.458z"/></g></svg>